<svg version="1.1" id="Layer_1" xmlns="http://www.w3.org/2000/svg" xmlns:xlink="http://www.w3.org/1999/xlink" x="0px" y="0px"
	 width="100%" viewBox="0 0 1024 1024" enable-background="new 0 0 1024 1024" xml:space="preserve">
<path fill="#000000" opacity="1.000000" stroke="none" 
	d="
M641.917480,517.328430 
	C603.735962,490.493958 565.890625,463.832703 528.037292,437.182800 
	C523.816162,434.210968 519.401978,431.490845 515.355225,428.301331 
	C512.589050,426.121063 510.602356,426.496948 507.890442,428.429504 
	C474.809814,452.003296 441.649567,475.465302 408.510101,498.956543 
	C400.633881,504.539673 392.822754,510.217529 384.865479,515.682556 
	C375.772949,521.927307 364.644836,520.421692 359.133392,512.396851 
	C352.964813,503.415131 355.193787,492.345673 364.500214,485.759186 
	C409.357849,454.011871 454.220123,422.271118 499.070465,390.513489 
	C507.810120,384.325134 515.723267,384.084564 524.474854,390.249756 
	C551.973572,409.621613 579.393677,429.104919 606.861328,448.520996 
	C624.674683,461.112701 642.503357,473.682861 660.354919,486.220398 
	C667.145752,490.989746 669.490479,497.616333 667.842529,505.427582 
	C665.299316,517.482422 654.177612,522.569824 641.917480,517.328430 
z"/>
<path fill="#000000" opacity="1.000000" stroke="none" 
	d="
M534.227539,497.810974 
	C544.308411,512.327820 554.205017,526.537720 564.039978,540.790100 
	C565.222351,542.503479 567.037964,544.247864 565.753113,546.645996 
	C564.443054,549.091370 561.960449,548.301331 559.903015,548.325317 
	C552.576050,548.410767 545.240540,548.559387 537.922241,548.294861 
	C533.552979,548.136963 532.135925,549.703491 532.163452,554.062378 
	C532.335754,581.374634 532.281799,608.688354 532.305725,636.001587 
	C532.311829,642.962219 532.316833,642.988220 525.439209,642.988708 
	C516.112854,642.989258 506.784271,642.817200 497.461060,642.977051 
	C493.142151,643.051147 491.679504,641.398682 491.699402,637.079224 
	C491.825195,609.766602 491.742157,582.453064 491.717285,555.139832 
	C491.711151,548.416138 491.692871,548.401123 485.181854,548.369995 
	C478.353668,548.337402 471.523193,548.428894 464.698181,548.272888 
	C462.344666,548.219116 459.315155,549.489441 457.828094,546.776550 
	C456.222778,543.847961 458.947235,541.795654 460.378448,539.730957 
	C474.037750,520.025635 487.797699,500.390137 501.523102,480.730621 
	C503.524475,477.863953 505.501740,474.980408 507.480377,472.097931 
	C511.325012,466.497101 512.191895,466.484711 516.215332,472.179016 
	C522.172668,480.610199 528.090149,489.069550 534.227539,497.810974 
z"/>
<path fill="#000000" opacity="1.000000" stroke="none" 
	d="
M394.746216,619.999939 
	C394.748535,592.530823 394.825806,565.561157 394.674957,538.592834 
	C394.652740,534.620361 395.998047,532.167358 399.242004,529.979797 
	C408.210297,523.932007 416.965424,517.568420 425.821930,511.354034 
	C427.023102,510.511200 428.068268,509.325043 429.784912,509.276886 
	C431.825958,510.441406 431.083954,512.465698 431.088043,514.160828 
	C431.157288,542.960876 431.274994,571.761536 431.111298,600.560547 
	C431.084290,605.310486 432.397278,607.012634 437.273773,606.820679 
	C445.916779,606.480530 454.586487,606.878906 463.238739,606.686340 
	C467.143402,606.599426 468.498566,608.011230 468.461945,611.908081 
	C468.380737,620.555725 467.977600,629.219727 468.879181,637.856384 
	C469.282990,641.724487 467.503937,643.159180 463.644653,643.136719 
	C442.502838,643.013672 421.359894,642.991150 400.217957,643.080383 
	C396.140991,643.097595 394.539978,641.603333 394.714905,637.478210 
	C394.954468,631.828430 394.757416,626.160217 394.746216,619.999939 
z"/>
<path fill="#000000" opacity="1.000000" stroke="none" 
	d="
M592.816284,547.000000 
	C592.816040,534.278503 592.816040,522.056946 592.816040,510.143738 
	C595.250854,509.294312 596.263672,510.384491 597.302856,511.101318 
	C607.035461,517.815063 616.698425,524.630676 626.468811,531.288696 
	C628.690186,532.802429 629.326172,534.661316 629.323914,537.188293 
	C629.294250,570.837280 629.307312,604.486206 629.366455,638.135132 
	C629.371582,641.060425 628.834229,642.795166 625.271545,642.778931 
	C608.123718,642.700623 590.974976,642.857544 573.826599,642.864746 
	C569.002014,642.866699 564.177795,642.597107 559.352417,642.543701 
	C556.884705,642.516357 555.698303,641.488953 555.709595,638.944885 
	C555.751587,629.450256 555.759583,619.955078 555.705383,610.460571 
	C555.686279,607.122070 557.783142,606.769348 560.351624,606.771118 
	C568.680481,606.776733 577.009338,606.751343 585.338135,606.717346 
	C592.798462,606.686890 592.796387,606.674866 592.798584,598.973083 
	C592.803406,581.815369 592.810425,564.657715 592.816284,547.000000 
z"/>
</svg>