<?xml version="1.0" encoding="UTF-8" standalone="no"?>
<svg
   version="1.1"
   id="Layer_1"
   x="0px"
   y="0px"
   width="100%"
   viewBox="0 0 1024 1024"
   enable-background="new 0 0 1024 1024"
   xml:space="preserve"
   sodipodi:docname="file (1).svg"
   inkscape:version="1.4 (e7c3feb1, 2024-10-09)"
   xmlns:inkscape="http://www.inkscape.org/namespaces/inkscape"
   xmlns:sodipodi="http://sodipodi.sourceforge.net/DTD/sodipodi-0.dtd"
   xmlns="http://www.w3.org/2000/svg"
   xmlns:svg="http://www.w3.org/2000/svg"><defs
   id="defs4" /><sodipodi:namedview
   id="namedview4"
   pagecolor="#ffffff"
   bordercolor="#000000"
   borderopacity="0.25"
   inkscape:showpageshadow="2"
   inkscape:pageopacity="0.0"
   inkscape:pagecheckerboard="0"
   inkscape:deskcolor="#d1d1d1"
   inkscape:zoom="0.51374908"
   inkscape:cx="489.53859"
   inkscape:cy="604.38064"
   inkscape:window-width="1512"
   inkscape:window-height="876"
   inkscape:window-x="0"
   inkscape:window-y="15"
   inkscape:window-maximized="1"
   inkscape:current-layer="Layer_1" />
<path
   fill="#000000"
   opacity="1"
   stroke="none"
   d="M 854.75632,504.27205 C 752.87563,426.90751 651.89198,350.04236 550.88699,273.20994 c -11.26334,-8.56787 -23.04181,-16.41007 -33.83987,-25.60553 -7.38104,-6.28577 -12.68219,-5.20209 -19.91847,0.36953 -88.26985,67.96391 -176.75215,135.60553 -265.17901,203.33144 -21.01631,16.09633 -41.85894,32.46576 -63.09152,48.22158 -24.26183,18.00379 -53.95524,13.66306 -68.66157,-9.47278 -16.459778,-25.89456 -10.512149,-57.80811 14.32043,-76.79715 119.69473,-91.5284 239.40185,-183.0379 359.07711,-274.59603 23.32024,-17.84121 44.43509,-18.53478 67.78716,-0.76036 73.37551,55.84961 146.54126,112.02053 219.83386,167.99764 47.53182,36.30225 95.10451,72.54237 142.73827,108.68844 18.12015,13.75016 24.37664,32.8548 19.97938,55.37485 -6.78612,34.75446 -36.46243,49.42157 -69.17644,34.31048 z"
   id="path1"
   style="stroke-width:2.7736" />
<path
   fill="#000000"
   opacity="1"
   stroke="none"
   d="m 567.40458,448.00268 c 26.89904,41.85248 53.3064,82.82002 79.54927,123.91003 3.15496,4.93972 7.99961,9.96883 4.5712,16.88273 -3.49567,7.05008 -10.12006,4.77237 -15.60997,4.84152 -19.55072,0.24635 -39.12424,0.67483 -58.65184,-0.0879 -11.65859,-0.45522 -15.43977,4.06113 -15.36631,16.62793 0.45976,78.742 0.31579,157.48823 0.37964,236.23306 0.0162,20.06769 0.0296,20.14266 -18.3221,20.14406 -24.88575,0.002 -49.77744,-0.49446 -74.65479,-0.0336 -11.52425,0.21363 -15.42707,-4.55049 -15.37397,-17.0036 0.33565,-78.74307 0.11415,-157.48877 0.0476,-236.23358 -0.0164,-19.3846 -0.0652,-19.4279 -17.43864,-19.51764 -18.21982,-0.094 -36.44575,0.1698 -54.65709,-0.27996 -6.27995,-0.15498 -14.36367,3.50735 -18.33163,-4.31399 -4.2835,-8.44319 2.98624,-14.36006 6.80518,-20.31264 36.44744,-56.81099 73.16347,-113.4207 109.7873,-170.09964 5.3403,-8.26469 10.6163,-16.57803 15.89594,-24.88829 10.25873,-16.14736 12.57186,-16.18307 23.30769,0.23377 15.89611,24.30734 31.68586,48.69589 48.06242,73.89767 z"
   id="path2"
   style="stroke-width:2.7736" />
<path
   fill="#000000"
   opacity="1"
   stroke="none"
   d="m 195.22313,800.27692 c 0.006,-79.19423 0.21237,-156.94855 -0.19015,-234.69899 -0.0593,-11.45275 3.53044,-18.52482 12.18637,-24.83162 23.93032,-17.43595 47.29184,-35.78235 70.92386,-53.69861 3.20513,-2.42991 5.99397,-5.84963 10.57454,-5.98847 5.44616,3.35734 3.46625,9.19343 3.47717,14.08054 0.18478,83.03135 0.49885,166.06448 0.0621,249.09283 -0.0721,13.69422 3.4314,18.60156 16.44348,18.04814 23.06234,-0.98066 46.19593,0.16787 69.28295,-0.3873 10.41891,-0.25058 14.03493,3.8197 13.93721,15.05443 -0.21668,24.9314 -1.29238,49.90996 1.11332,74.80969 1.0775,11.15185 -3.66958,15.28811 -13.96741,15.22335 -56.41323,-0.35473 -112.82947,-0.41968 -169.24302,-0.1624 -10.87867,0.0496 -15.15069,-4.25838 -14.68393,-16.15121 0.63923,-16.28848 0.11341,-32.6301 0.0835,-50.39036 z"
   id="path3"
   style="stroke-width:2.7736" />
<path
   fill="#000000"
   opacity="1"
   stroke="none"
   d="m 723.73838,589.81603 c -6.5e-4,-36.67644 -6.5e-4,-71.91152 -6.5e-4,-106.25764 6.49686,-2.44892 9.1994,0.6941 11.97227,2.76074 25.96977,19.35591 51.75369,39.00551 77.82425,58.20078 5.92735,4.36412 7.62436,9.72335 7.61834,17.0087 -0.0792,97.01097 -0.0442,194.02178 0.11356,291.03259 0.0133,8.4337 -1.42014,13.43501 -10.92654,13.3882 -45.75597,-0.22575 -91.51438,0.22665 -137.27183,0.24741 -12.87354,0.005 -25.74613,-0.77161 -38.6218,-0.92558 -6.58466,-0.0788 -9.75037,-3.04087 -9.72023,-10.3755 0.11208,-27.37328 0.13332,-54.74815 -0.0118,-82.12107 -0.051,-9.62499 5.54413,-10.64191 12.39767,-10.6368 22.2241,0.0165 44.44819,-0.057 66.67213,-0.15497 19.90656,-0.0879 19.90103,-0.1225 19.9069,-22.32693 0.0133,-49.46618 0.0316,-98.93218 0.0472,-149.83988 z"
   id="path4"
   style="stroke-width:2.7736" />
</svg>
